<svg xmlns="http://www.w3.org/2000/svg" display="none">


<!-- HEADER -->

<symbol>
  <path id='mobile-menu-star' d="m5.5 0 1.235 3.8h3.996L7.498 6.15l1.235 3.8L5.5 7.6 2.267 9.95l1.235-3.8L.269 3.8h3.996L5.5 0Z"/>
</symbol>


<!-- ABOUT -->

<symbol viewBox="0 0 73 72">
  <path id='star' d="M36.4602 0L42.0643 30.3997L72.4849 36L42.0643 41.6003L36.4602 72L30.856 41.6003L0.435425 36L30.856 30.3997L36.4602 0Z"/>
</symbol>


<!-- HELP -->

<symbol>
  <path id='help-decor' stroke="#fff" stroke-miterlimit="10" stroke-width="2.49" d="m19.058.45-.093 18.77M37.685 3.889l-8.112 17.289M53.543 15.746 37.685 26.853M60.681 35.265l-20.692.479M57.058 52.77l-19.23-6.584M9.736 21.692 1.353 6.11"/>
</symbol>


<!-- TEACHERS -->

<symbol>
  <path id='play-video' fill-opacity=".5" d="M9.922 55.82a31.993 31.993 0 0 1-7.283-10.388A31.58 31.58 0 0 1 0 33.08a31.57 31.57 0 0 1 2.42-12.395 31.97 31.97 0 0 1 7.098-10.51 32.54 32.54 0 0 1 10.674-6.99A32.945 32.945 0 0 1 32.783.803c4.315.037 8.58.92 12.544 2.597a32.518 32.518 0 0 1 10.55 7.171c5.92 6.036 9.196 14.119 9.122 22.51-.074 8.39-3.492 16.416-9.518 22.349-6.026 5.933-14.177 9.298-22.699 9.371-8.521.073-16.73-3.153-22.86-8.982Zm41.372-4.513c4.879-4.803 7.62-11.318 7.62-18.111 0-6.794-2.741-13.309-7.62-18.112C46.416 10.28 39.8 7.58 32.9 7.58s-13.516 2.699-18.395 7.503c-4.878 4.803-7.62 11.318-7.62 18.112 0 6.793 2.742 13.308 7.62 18.111C19.383 56.111 26 58.81 32.9 58.81c6.9 0 13.517-2.699 18.395-7.503ZM23.15 20.395l26 12.8-26 12.8v-25.6Z"/>
</symbol>

<symbol>
  <path id='close' d="m4.375 8.02 3.646-3.645 9.479 9.48 9.48-9.48 3.645 3.646-9.48 9.479 9.48 9.48-3.646 3.645-9.479-9.48-9.48 9.48-3.645-3.646 9.48-9.479-9.48-9.48Z"/>
</symbol>



<!-- TARIFFS -->

<symbol  width="16" height="15">
  <g id='arrow' clip-path="url(#a)"><rect width="15" height="16" x="16" fill="#DFFEE0" rx="2" transform="rotate(90 16 0)"/><path fill="#212019" d="M12.938 6.75 8.08 2.197l1.131-1.06L16 7.5l-.566.53-6.222 5.834-1.131-1.06 4.857-4.554H0v-1.5h12.938Z"/></g><defs><clipPath id="a"><rect width="15" height="16" x="16" fill="#fff" rx="2" transform="rotate(90 16 0)"/></clipPath></defs>
</symbol>



<!-- QUESTIONS -->

<symbol viewBox="0 0 25 24">
  <path id='faqClose' d="M14.0849 11.3301H23.3725V12.6634H14.0849H13.0849V13.6634V22.6634H11.6557V13.6634V12.6634H10.6557H1.3681V11.3301H10.6557H11.6557V10.3301V1.33008H13.0849V10.3301V11.3301H14.0849Z"/>
</symbol>


<!-- CONTACT -->

<symbol>
<path id='result-check' fill="#42816C" d="m.714 27.676 6.743-6.705 16.857 16.762L61.4.857l6.743 6.705-43.829 43.58-23.6-23.466Z"/>
</symbol>

<symbol viewBox="0 0 50 50">
  <g id='viber'>
  <path fill-rule="evenodd" clip-rule="evenodd" d="M37.3586 1.21986C28.9903 -0.497766 20.3122 -0.497766 11.9439 1.21986L11.0423 1.40303C8.68836 1.88627 6.52642 2.95923 4.79663 4.50273C3.06683 6.04622 1.83689 7.99982 1.24344 10.1465C-0.877779 17.8215 -0.877779 25.8615 1.24344 33.5365C1.80939 35.5838 2.95479 37.4573 4.56353 38.9671C6.17227 40.4768 8.18715 41.5692 10.4039 42.1334L11.6407 48.9133C11.6802 49.1286 11.7818 49.3302 11.935 49.4972C12.0882 49.6642 12.2873 49.7904 12.5116 49.8627C12.736 49.935 12.9773 49.9508 13.2105 49.9084C13.4438 49.866 13.6604 49.7669 13.8377 49.6215L21.1017 43.655C26.5546 43.9605 32.0272 43.5601 37.3586 42.4656L38.263 42.2824C40.6169 41.7992 42.7788 40.7262 44.5086 39.1827C46.2384 37.6392 47.4683 35.6856 48.0618 33.5389C50.1828 25.8639 50.1828 17.824 48.0618 10.1489C47.4681 8.00195 46.2378 6.04814 44.5075 4.50462C42.7772 2.96109 40.6147 1.88831 38.2603 1.40547L37.3586 1.21986ZM14.1888 9.94867C13.6945 9.8826 13.1904 9.97397 12.7605 10.2076H12.7233C11.7258 10.7449 10.8268 11.4214 10.0608 12.2176C9.42242 12.8941 9.07664 13.5779 8.98621 14.2374C8.93301 14.6281 8.97025 15.0238 9.09526 15.3975L9.14314 15.4219C9.86129 17.3586 10.7976 19.2221 11.9413 20.9757C13.416 23.4387 15.2308 25.7167 17.3407 27.7531L17.4046 27.8361L17.5056 27.9045L17.5668 27.9705L17.6413 28.0291C19.8668 29.9723 22.3535 31.6466 25.0409 33.0114C28.113 34.5476 29.9776 35.273 31.0974 35.5758V35.5905C31.4245 35.6833 31.7224 35.7248 32.023 35.7248C32.9767 35.6601 33.8793 35.3041 34.5871 34.7137C35.4515 34.0103 36.183 33.1824 36.7522 32.2616V32.2445C37.2868 31.3164 37.1059 30.4421 36.3346 29.8486C34.7852 28.6056 33.1099 27.5015 31.3314 26.5515C30.1398 25.958 28.9296 26.317 28.4402 26.9178L27.3949 28.1292C26.8576 28.73 25.8841 28.647 25.8841 28.647L25.8575 28.6616C18.5935 26.9594 16.6545 20.2064 16.6545 20.2064C16.6545 20.2064 16.5641 19.2881 17.237 18.8191L18.5456 17.852C19.1734 17.3831 19.6096 16.2743 18.9366 15.1801C17.9089 13.5456 16.7089 12.0077 15.3538 10.5886C15.0583 10.2546 14.6438 10.0271 14.1835 9.94623L14.1888 9.94867ZM26.4613 7.01302C26.1086 7.01302 25.7703 7.14167 25.5209 7.37068C25.2715 7.5997 25.1314 7.9103 25.1314 8.23417C25.1314 8.55804 25.2715 8.86865 25.5209 9.09766C25.7703 9.32667 26.1086 9.45533 26.4613 9.45533C29.826 9.45533 32.6188 10.464 34.8291 12.3983C35.9649 13.4558 36.8506 14.7087 37.4304 16.0813C38.0129 17.4563 38.2789 18.9242 38.2098 20.3944C38.2024 20.5548 38.2296 20.7149 38.2896 20.8656C38.3497 21.0164 38.4415 21.1548 38.5598 21.2729C38.7987 21.5116 39.1311 21.6533 39.4838 21.6669C39.8365 21.6805 40.1807 21.5649 40.4406 21.3455C40.7005 21.1261 40.8548 20.8209 40.8696 20.497C40.9521 18.6884 40.6251 16.8838 39.9094 15.1972C39.1905 13.5026 38.1006 11.9614 36.707 10.6692L36.6804 10.6447C33.9381 8.23905 30.467 7.01302 26.4613 7.01302ZM26.3709 11.0282C26.0181 11.0282 25.6799 11.1568 25.4305 11.3858C25.1811 11.6149 25.0409 11.9255 25.0409 12.2493C25.0409 12.5732 25.1811 12.8838 25.4305 13.1128C25.6799 13.3418 26.0181 13.4705 26.3709 13.4705H26.4161C28.8418 13.6292 30.608 14.3717 31.8448 15.5904C33.1135 16.8458 33.7705 18.4064 33.72 20.3358C33.7119 20.6597 33.8442 20.9732 34.0879 21.2075C34.3315 21.4418 34.6666 21.5776 35.0193 21.5851C35.372 21.5925 35.7135 21.471 35.9686 21.2472C36.2238 21.0235 36.3717 20.7159 36.3798 20.392C36.4436 17.8593 35.5553 15.6734 33.7944 13.9296V13.9248C31.9937 12.1516 29.5228 11.2138 26.5491 11.0306L26.5039 11.0257L26.3709 11.0282ZM26.3203 15.119C26.1423 15.1046 25.963 15.1233 25.7931 15.1739C25.6231 15.2245 25.466 15.3061 25.3311 15.4137C25.1963 15.5213 25.0864 15.6527 25.0081 15.8002C24.9298 15.9477 24.8846 16.1081 24.8753 16.2719C24.866 16.4358 24.8928 16.5996 24.954 16.7538C25.0152 16.9079 25.1096 17.0491 25.2315 17.169C25.3535 17.2889 25.5005 17.385 25.6638 17.4516C25.8271 17.5182 26.0034 17.5538 26.182 17.5565C27.2938 17.6102 28.004 17.9179 28.4508 18.3307C28.9004 18.7459 29.2355 19.4126 29.2967 20.4555C29.3 20.6194 29.3392 20.7809 29.412 20.9306C29.4848 21.0803 29.5896 21.215 29.7203 21.3266C29.8509 21.4383 30.0047 21.5247 30.1725 21.5806C30.3403 21.6366 30.5186 21.6609 30.6969 21.6522C30.8751 21.6435 31.0497 21.602 31.2101 21.53C31.3704 21.4581 31.5134 21.3572 31.6305 21.2335C31.7475 21.1097 31.8362 20.9656 31.8913 20.8097C31.9464 20.6538 31.9668 20.4893 31.9512 20.326C31.8661 18.8607 31.366 17.5662 30.342 16.6137C29.3126 15.6612 27.9109 15.1972 26.3203 15.119Z" fill="#6C0985"/>
  </g>
  <rect width="50" height="50" fill="white"/>
</symbol>

<symbol>
  <g id='telegram'>
  <path fill="#229ED9" d="M25 0A25.007 25.007 0 0 0 0 25a25.007 25.007 0 0 0 7.324 17.678 24.997 24.997 0 0 0 35.352 0A25.007 25.007 0 0 0 50 25a25.008 25.008 0 0 0-7.324-17.678A24.997 24.997 0 0 0 25 0Z"/>
  <path fill="#fff" d="M11.316 24.736c7.29-3.175 12.149-5.268 14.579-6.28 6.945-2.887 8.386-3.39 9.328-3.406.207-.003.668.048.968.291.25.205.32.482.356.677.031.195.074.638.039.984-.375 3.953-2.004 13.546-2.832 17.974-.348 1.873-1.04 2.502-1.707 2.563-1.453.133-2.555-.96-3.961-1.881-2.2-1.443-3.441-2.34-5.578-3.748-2.469-1.626-.867-2.52.539-3.981.367-.383 6.765-6.201 6.887-6.729.015-.066.03-.312-.118-.442-.144-.13-.359-.085-.515-.05-.223.05-3.735 2.373-10.547 6.97-.996.685-1.899 1.019-2.711 1.001-.89-.019-2.61-.504-3.887-.92-1.562-.508-2.808-.777-2.699-1.642.055-.45.676-.91 1.86-1.38Z"/>
  </g>
  <linearGradient id="b" x1="2500" x2="2500" y1="0" y2="5000" gradientUnits="userSpaceOnUse"><stop stop-color="#2AABEE"/><stop offset="1" stop-color="#229ED9"/></linearGradient>
  <path fill="#fff" d="M0 0h50v50H0z"/>
</symbol>


<!-- FOOTER -->

<symbol >
  <path id='plus' d="M13.363 11.626c1.203-.094 2.101-1.155 2.007-2.372l-.454-5.828c-.095-1.217-1.148-2.127-2.35-2.033a2.199 2.199 0 0 0-2.009 2.372l.454 5.829c.097 1.216 1.15 2.126 2.352 2.032ZM14.576 27.201c1.203-.093 2.102-1.154 2.007-2.371L16.129 19a2.196 2.196 0 0 0-2.35-2.03 2.198 2.198 0 0 0-2.008 2.37l.454 5.828c.097 1.217 1.149 2.126 2.351 2.032ZM18.259 15.642l5.77-.45c1.204-.093 2.102-1.155 2.008-2.371a2.195 2.195 0 0 0-2.35-2.03l-5.77.449a2.198 2.198 0 0 0-2.01 2.37c.095 1.214 1.15 2.126 2.352 2.032ZM3.379 16.803l5.77-.45c1.203-.094 2.102-1.155 2.007-2.372a2.195 2.195 0 0 0-2.35-2.03l-5.77.45a2.197 2.197 0 0 0-2.01 2.37c.095 1.214 1.15 2.125 2.353 2.032Z"/>
</symbol>

<symbol >
  <path id='circle' d="M13.363 24.424C7.007 24.919 1.428 20.099.928 13.679.428 7.258 5.193 1.631 11.55 1.136c6.357-.495 11.936 4.325 12.436 10.745.5 6.42-4.265 12.047-10.622 12.542ZM11.725 3.389c-5.127.4-8.973 4.938-8.57 10.118.404 5.179 4.904 9.07 10.033 8.67 5.127-.4 8.973-4.938 8.57-10.119-.404-5.18-4.904-9.069-10.033-8.67Z"/>
</symbol>


</svg>