<svg width="65" height="77" viewBox="0 0 65 77" fill="none" xmlns="http://www.w3.org/2000/svg">
<path d="M65 30.6944C65 13.7432 50.4497 0 32.5 0C14.5516 0 0 13.7419 0 30.6944C0 45.4191 10.9815 57.7176 25.6306 60.6953L32.5 76.5205L39.3694 60.6953C54.0172 57.7176 65 45.4204 65 30.6944Z" fill="white"/>
<path d="M48.561 21.714C44.8188 17.8917 38.5036 17.6588 34.4579 21.1932L32.5014 22.9028L30.5449 21.1932C26.4978 17.6588 20.184 17.8917 16.4418 21.714C12.6995 25.5362 12.9461 31.4993 16.9932 35.0336L32.5028 48.5798L48.0123 35.0336C52.0567 31.4993 52.3033 25.5362 48.561 21.714Z" fill="#DE5D5D"/>
</svg>
