<svg xmlns="http://www.w3.org/2000/svg" width="65" height="65" fill="none"><path fill="#fff" fill-opacity=".5" d="M9.922 55.82a31.993 31.993 0 0 1-7.283-10.388A31.58 31.58 0 0 1 0 33.08a31.57 31.57 0 0 1 2.42-12.395 31.97 31.97 0 0 1 7.098-10.51 32.54 32.54 0 0 1 10.674-6.99A32.945 32.945 0 0 1 32.783.803c4.315.037 8.58.92 12.544 2.597a32.518 32.518 0 0 1 10.55 7.171c5.92 6.036 9.196 14.119 9.122 22.51-.074 8.39-3.492 16.416-9.518 22.349-6.026 5.933-14.177 9.298-22.699 9.371-8.521.073-16.73-3.153-22.86-8.982Zm41.372-4.513c4.879-4.803 7.62-11.318 7.62-18.111 0-6.794-2.741-13.309-7.62-18.112C46.416 10.28 39.8 7.58 32.9 7.58s-13.516 2.699-18.395 7.503c-4.878 4.803-7.62 11.318-7.62 18.112 0 6.793 2.742 13.308 7.62 18.111C19.383 56.111 26 58.81 32.9 58.81c6.9 0 13.517-2.699 18.395-7.503ZM23.15 20.395l26 12.8-26 12.8v-25.6Z"/></svg>