<svg xmlns="http://www.w3.org/2000/svg" width="27" height="46" fill="none"><path fill="#E45E98" d="M9.996 2.686c-1.592 3.964-.547 8.71 2.598 11.8.85-4.079.077-8.446-2.598-11.8ZM26.142 6.942c-8.316 3.906-14.378 11.595-15.805 20.048C17.53 21.716 22.92 14.843 26.142 6.942Z"/><path fill="#F87AA7" d="M21.995 5.36c-3.358.543-6.34 2.742-7.635 5.629 3.41-.803 5.797-2.88 7.635-5.63ZM6.992 17.249C4.163 16.81 1.66 14.916.66 12.455c2.842.649 4.936 2.438 6.333 4.794ZM8.29 19.286a6.426 6.426 0 0 0-4.67.156c1.546 1.126 3.093.931 4.67-.156ZM23.272 29.41c-.759-.187-1.564-.136-2.337-.012-3.04.491-5.83 2.162-7.539 4.513 3.966-.118 7.52-1.58 9.876-4.502Z"/><path fill="#E45E98" d="M14.675 30.178a5.43 5.43 0 0 1 .06-5.3c.776 1.662.94 3.74-.06 5.3ZM9.458 34.343C4.203 31.76.528 26.663 0 21.227c4.127 3.766 7.283 8.167 9.458 13.116Z"/><path fill="#739C28" d="M10.904 45.05c-.245 0-.459-.16-.507-.382-2.979-13.986-.291-29.12 7.373-41.525.14-.228.455-.306.703-.178.248.128.336.416.196.643-6.805 11.013-9.625 24.21-7.962 36.794 1.203-7.828 5.764-15.24 12.922-20.802a.55.55 0 0 1 .727.055c.184.2.158.497-.06.666-8.19 6.363-12.883 15.204-12.877 24.256 0 .243-.202.446-.467.47a.835.835 0 0 1-.048.002Z"/><path fill="#739C28" d="M10.6 22.06a.54.54 0 0 1-.378-.151c-3.228-3.19-5.12-7.511-5.188-11.858-.004-.261.224-.476.51-.479.25-.022.519.205.523.466.064 4.116 1.855 8.21 4.913 11.23.193.19.18.49-.028.667a.546.546 0 0 1-.351.125Z"/><path fill="#ACC400" d="M20.183 1.96c.275.787-.199 1.628-1.059 1.88-.86.25-1.78-.183-2.054-.97-.275-.787.2-1.628 1.059-1.88.86-.251 1.78.183 2.054.97ZM14.887 3.581c.13.375-.095.775-.504.895-.41.12-.847-.087-.977-.461-.131-.375.095-.775.503-.895.41-.12.847.087.978.461ZM16.249 12.158c.08.228-.058.471-.307.544-.249.073-.515-.053-.594-.28-.08-.228.057-.472.306-.545.25-.072.515.053.595.28ZM7.197 8.98c.29.83-.21 1.716-1.117 1.981-.906.265-1.875-.192-2.165-1.021-.29-.83.21-1.716 1.117-1.981.906-.265 1.875.192 2.165 1.021ZM9.269 12.586c.118.338-.086.7-.455.807-.37.108-.765-.078-.883-.416-.118-.338.086-.7.455-.808.37-.107.765.079.883.417ZM3.523 11.025c.104.3-.076.62-.403.716-.327.095-.678-.07-.782-.37-.104-.299.076-.62.403-.715.327-.096.677.07.782.37ZM7.654 22.191c.224.642-.163 1.33-.866 1.535-.702.205-1.453-.15-1.678-.792-.224-.643.164-1.33.866-1.535.702-.205 1.453.15 1.678.792ZM7.94 25.544c.102.295-.075.61-.398.704-.322.094-.666-.068-.77-.363-.102-.295.075-.61.398-.704.322-.094.666.069.77.363ZM26.914 18.919c.303.869-.22 1.798-1.17 2.076-.95.277-1.966-.202-2.27-1.07-.303-.87.221-1.8 1.17-2.077.95-.278 1.966.202 2.27 1.07ZM19.607 20.646c.072.205-.052.424-.276.49-.223.065-.462-.048-.534-.253-.071-.205.052-.423.276-.489.224-.065.463.048.534.252ZM23.798 24.988c.18.517-.131 1.07-.696 1.235-.565.165-1.169-.12-1.35-.637-.18-.516.132-1.07.696-1.234.565-.166 1.17.12 1.35.636ZM20.393 27.177c.064.183-.046.379-.246.437-.2.058-.413-.042-.477-.225s.046-.379.246-.437c.2-.058.414.043.477.225ZM5.793 34.857c.248.713-.181 1.477-.961 1.704-.78.228-1.614-.165-1.863-.879-.249-.713.181-1.476.961-1.704.78-.228 1.614.166 1.863.879ZM7.21 37.481c.087.249-.064.515-.335.594-.272.08-.562-.058-.649-.306-.087-.249.064-.514.335-.593.272-.08.562.057.649.305Z"/></svg>