<svg width="65" height="65" viewBox="0 0 65 65" fill="none" xmlns="http://www.w3.org/2000/svg">
<path d="M9.92187 55.8195C6.81779 52.8676 4.34186 49.3365 2.63857 45.4324C0.935279 41.5283 0.0387261 37.3292 0.00122709 33.0803C-0.0362719 28.8314 0.786033 24.6176 2.42016 20.6849C4.05429 16.7523 6.46752 13.1794 9.51903 10.1748C12.5705 7.17026 16.1992 4.79416 20.1934 3.18517C24.1875 1.57619 28.4671 0.766532 32.7824 0.803454C37.0977 0.840376 41.3624 1.72314 45.3275 3.40022C49.2926 5.07731 52.8788 7.51514 55.8769 10.5715C61.797 16.6067 65.0728 24.69 64.9988 33.0803C64.9247 41.4706 61.5067 49.4966 55.481 55.4297C49.4552 61.3627 41.3038 64.7281 32.7824 64.801C24.261 64.8739 16.0514 61.6485 9.92187 55.8195ZM51.2944 51.3075C56.173 46.5039 58.9138 39.9888 58.9138 33.1955C58.9138 26.4021 56.173 19.8871 51.2944 15.0835C46.4157 10.2799 39.7988 7.58123 32.8994 7.58123C25.9999 7.58123 19.383 10.2799 14.5044 15.0835C9.62571 19.8871 6.88491 26.4021 6.88491 33.1955C6.88491 39.9888 9.62571 46.5039 14.5044 51.3075C19.383 56.1111 25.9999 58.8097 32.8994 58.8097C39.7988 58.8097 46.4157 56.1111 51.2944 51.3075ZM23.1494 20.3955L49.1494 33.1955L23.1494 45.9955V20.3955Z" fill="white" fill-opacity="0.5"/>
</svg>
